# xmcd
#
# Track frame offsets: 
#        150
#        14030
#        31903
#        48640
#        74630
#        93239
#        112047
#        132817
#        150340
#        167943
#        184070
#        200938
#
# Disc length: 2955 seconds
#
# Revision: 0
# Processed by: cddbd v1.5.2PL0 Copyright (c) Steve Scherf et al.
# Submitted via: ExactAudioCopyFreeDBPlugin 1.0
#
DISCID=ad0b890c
DTITLE=รวมศิลปิน - รวมเพลง ฅ.ฅนดนตรี 1
DYEAR=1900
DGENRE=
TTITLE0=หงา คาราวาน - รักเมื่อเดือนเมษา
TTITLE1=สีเผือก - หัวใจแหว่ง
TTITLE2=โฮป - ช่างมันฉันไม่แคร์
TTITLE3=พงษ์สิทธิ์ คำภีร์ - ความเข้มแข็งสุดท้าย
TTITLE4=แก้ว+ศุ - ตะลอนฝัน
TTITLE5=แอร์ - สัญญารักบุญบั้งไฟ
TTITLE6=พงษ์สิทธิ์ คำภีร์ - บ้าน
TTITLE7=สีเผือก - เสี่ยวปนลาว
TTITLE8=สะตอ - ไม่ได้เรียนหนังสือ
TTITLE9=ทอม ดันดี - ลายเสือ
TTITLE10=นัดฐา - หัวแตก
TTITLE11=หงา คาราวาน - ฉันเป็นดอกไม้
EXTD=
EXTT0=
EXTT1=
EXTT2=
EXTT3=
EXTT4=
EXTT5=
EXTT6=
EXTT7=
EXTT8=
EXTT9=
EXTT10=
EXTT11=
PLAYORDER=
